<svg width="20" height="18" viewBox="0 0 20 18" fill="none" xmlns="http://www.w3.org/2000/svg">
<path d="M9.44875 3.76107L10 4.64337L10.5512 3.76107C11.3883 2.42131 12.863 1.56666 14.5455 1.56666C17.1753 1.56666 19.35 3.76435 19.35 6.47221C19.35 7.66908 18.8081 8.92486 17.91 10.1723C17.0164 11.4133 15.8113 12.5889 14.5839 13.6118C13.3596 14.632 12.1321 15.4847 11.209 16.083C10.748 16.3818 10.3645 16.6161 10.0972 16.7752C10.0633 16.7954 10.0313 16.8144 10.0012 16.8321C9.97097 16.8141 9.93871 16.7949 9.90454 16.7744C9.63717 16.6141 9.25355 16.3781 8.79251 16.0775C7.86917 15.4754 6.6414 14.6183 5.4168 13.595C4.1891 12.569 2.98354 11.3917 2.0897 10.1523C1.19093 8.90612 0.65 7.65646 0.65 6.47221C0.65 3.76435 2.82472 1.56666 5.45455 1.56666C7.13704 1.56666 8.61167 2.42131 9.44875 3.76107Z" stroke="#282828" stroke-width="1.3"/>
</svg>
